<svg xmlns="http://www.w3.org/2000/svg" viewBox="0 0 869 844">
  <defs>
    <clipPath id="a">
      <path style="fill:none" d="M-1-1h870v843H-1z"/>
    </clipPath>
  </defs>
  <g style="clip-path:url(#a)">
    <path d="M1966-308V908c-4 2-6-1-8-3-26-26-58-41-93-50-6-1-11-2-16-6-4-5-3-12-3-18V709q0-232-109-436a883 883 0 0 0-121-174 919 919 0 0 0-225-185 909 909 0 0 0-327-114 898 898 0 0 0-174-8q-199 9-376 101A902 902 0 0 0 320 30Q141 194 66 425c-21 65-34 132-40 200a495 495 0 0 0-3 64c0 10-3 17-14 20-13 4-27 4-41 5-22 2-45 5-66 11a5 5 0 0 1-4-2l-1-6V-296c0-4 0-8 2-12l10-1h2046c4 0 7-1 11 1Z" style="fill:#f1dabf"/>
    <path d="m1678 866-23-14-9-4c-7-2-9-6-10-12-3-29-10-57-24-84-5-8-5-18-7-27-5-32-10-63-21-94-12-35-30-66-57-91-14-13-29-24-47-30-5-2-10-4-13-8a98 98 0 0 0-93-38c-9 1-17-1-25-3-69-20-129-2-178 50a74 74 0 0 0-15 24 65 65 0 0 1-9 16 276 276 0 0 0-49 35l-15 15c-3 3-7 7-12 1l-3-11c-12-44-35-80-74-106-15-10-32-18-51-20-16-1 200 24 201 66 0 9-10 10-23 29-26 36-23 80-20 94 10 55 108 109 238 91-65 40-176 96-320 104a651 651 0 0 1-122-4 96 96 0 0 1-27 14c-64 21-178-19-184-14a5 5 0 0 1-1 1c-5 1-7-3-10-6a436 436 0 0 0-121-90c-5-2-11-4-15-7a8 8 0 0 1-2-3 5 5 0 0 1 0-3c2-4 5-6 8-8 65-55 103-126 114-211 5-39 20-75 32-112 18-26 33-54 38-87 6-43 5-86-18-124-19-32-47-55-79-72-18-11-39-18-58-26-7-3-13-6-19-11-25-20-54-26-86-21-16 3-32 7-48 6-10-1-20 4-27 11-23 18-46 34-74 43-8 3-13 10-16 18-5 16-13 31-21 45-7 13-9 28-11 43a71 71 0 0 1-6 21c-8 17-12 34-9 53 0 4 0 8-3 10a10 10 0 0 1-4 2c-16 1-21 5-25 20-2 7-2 14-2 20 1 13-2 26-5 39-7 22-6 46-1 69 3 14 10 19 25 16s16 3 16 16c0 14 0 27-2 41-3 15-2 31-6 46-1 5-1 11-5 16a9 9 0 0 1-5 3c-20 5-36 17-51 30-5 4-9 7-14 9a121 121 0 0 1-13 3c-14 1-26 9-38 16l-30 20c-22 15-47 23-73 27-4 1-8 1-11-2l6-3a3 3 0 0 0 3-2 67 67 0 0 0 1-12v-33a40 40 0 0 1 1-12 30 30 0 0 0 1-7c0-7-1-13 1-20l1-6a31 31 0 0 1 1-9 16 16 0 0 0 0-5l2-12a6 6 0 0 0 0-2c0-9 2-17 4-25l2-18 3-13 10-44 5-19 6-21c1-5 2-10 5-15a10 10 0 0 0 0-2c2-9 6-17 9-25l14-39 14-33c8-19 18-37 27-56l20-34a26 26 0 0 0 2-4l11-19 17-25 29-40 13-18 14-17a45 45 0 0 1 4-5 91 91 0 0 0 10-11c2-4 6-7 9-10s6-5 8-9a28 28 0 0 1 4-5l40-39a23 23 0 0 1 4-4c5-3 8-7 12-11 3-3 6-7 10-9a19 19 0 0 0 4-3c3-3 6-7 10-9a7 7 0 0 0 2-1l34-27 34-26a112 112 0 0 1 12-8l31-19a8 8 0 0 0 2-1c4-4 10-6 15-9l29-16a27 27 0 0 1 3-2l39-20 18-8 29-11 21-9 37-13 30-8 54-15a15 15 0 0 1 3 0l27-6 17-2 11-2a49 49 0 0 0 11-2h4l7-1a58 58 0 0 1 7-1 49 49 0 0 0 10-2h9c4 0 8 0 12-2a25 25 0 0 1 7 0h12a19 19 0 0 0 6-1l13-1h84l15 1 6 1h9c5-1 9 1 14 1l12 1a92 92 0 0 0 11 2l11 1c4 1 8 0 12 2a4 4 0 0 0 1 0c7 0 13 2 19 3l13 2 18 3a15 15 0 0 1 3 1l47 11 32 10c7 2 14 5 22 6a56 56 0 0 1 11 4c7 4 16 6 23 9l23 8a22 22 0 0 1 4 2l20 9 13 6 43 21c6 3 13 6 18 11a12 12 0 0 0 2 0 255 255 0 0 1 39 24l39 25a210 210 0 0 1 23 17 170 170 0 0 0 15 12l17 13a82 82 0 0 1 14 12 14 14 0 0 0 3 2c5 3 8 7 12 11a19 19 0 0 0 4 3l12 11 50 51c3 3 6 5 8 9l5 5 9 11a5 5 0 0 0 2 2l14 17 23 29c5 9 12 17 18 26l19 28 6 10 6 8 17 31c11 18 19 37 29 56l10 23 10 23 2 5 8 22 13 37 8 26 15 58 3 16 3 17 2 15 3 12 1 11a16 16 0 0 1 1 5 33 33 0 0 0 1 10 22 22 0 0 1 0 6l2 12v9a37 37 0 0 0 2 9 27 27 0 0 1 0 7v15c0 4 0 8 2 12a24 24 0 0 1 0 7v168a16 16 0 0 0 2 7h-5a206 206 0 0 0-53-1c-31 3-60 11-86 28l-4 2a2 2 0 0 1-3-1l-3-7c-4-11-12-20-21-27a66 66 0 0 0-10-5 18 18 0 0 0-5-1 2 2 0 0 0-3 3 52 52 0 0 0 5 5l9 9a31 31 0 0 1 6 13Z" style="fill:#e4cbb1"/>
    <path d="M-99 2308h-1l-1-11V723a7 7 0 0 1 2 0c4 3 4 7 4 11 0 5 2 7 7 5a162 162 0 0 1 21-7 58 58 0 0 1 32 0c10 4 18 10 20 21 3 11-3 18-11 24a19 19 0 0 0-4 3 14 14 0 0 1-2 2l-2 1-1 1-2 2c-21 19-22 19-3 39 11 13 25 21 39 31 8 5 8 7 2 14-7 2-13 6-20 10l-32 11a13 13 0 0 1-2 1l-6 2h-1c-21 8-23 11-20 34 5 32 15 63 26 94l89 256 10 29a28 28 0 0 1 3 13c-1 11 1 23-1 35-5 26-27 38-52 27a86 86 0 0 1-27-18c-33-34-55-74-64-120a48 48 0 0 1-1-12h1l-1 1c3 24 2 49 2 73v981c0 6 1 12-1 18a7 7 0 0 1-3 3Z" style="fill:#8f9499"/>
    <path d="M-33 780a22 22 0 0 1 8-8c9-5 10-20 4-27-6-5-11-9-19-10l-14-2a30 30 0 0 0-8 1l-5 1a116 116 0 0 0-24 9l-2 1c-4 2-6 1-6-4v-18a32 32 0 0 1 5-3 54 54 0 0 1 8-2 183 183 0 0 1 27-5l28-3a24 24 0 0 1 3 0l26-2 12-2a31 31 0 0 0 6 0l31-7a111 111 0 0 0 17-6 169 169 0 0 0 27-14l30-21a123 123 0 0 1 35-15 46 46 0 0 1 5-1c1 2-1 4-2 6-22 16-26 40-27 65a582 582 0 0 0 6 102c2 9 1 19 3 28 0-6-5-13 2-19 5 4 5 9 5 13v57c-2 4 0 12-5 12-6 0-6-7-6-12-8-35-17-69-35-100-9-17-21-32-41-39-17-5-33-2-49 5a117 117 0 0 0-31 17c-3 3-6 5-10 5a4 4 0 0 1-4-2Z" style="fill:#858c8e"/>
    <path d="m693 408-11 33-4 12-9 29-4 11a40 40 0 0 0-1 13v9a42 42 0 0 1-1 6 409 409 0 0 1-9 42 378 378 0 0 1-12 36l-10 25a53 53 0 0 1-3 5l-3 5c-8 15-18 29-28 44l-19 24a145 145 0 0 1-23 22l-18 15c-1 6-7 7-11 10l-11 9-10 6-15 15-13 11c-4 3-9 7-15 8a129 129 0 0 1-73-16c-34-20-53-51-61-88-8-32-3-62 3-93l10-44c3-12 2-23-4-35-9-19-15-39-13-61 1-20 9-36 28-44 6-3 12-5 19-3s14 0 21-2c10-2 11-1 15 9 6 17 20 20 33 8 5-4 9-4 12 1l11 13c6 7 11 14 13 23 0 14-4 26-10 38-4 6-9 10-15 14l-5 3c-20 15-42 26-64 37-20 10-25 22-19 44 4 18 7 37 15 54 17 33 59 55 94 48 11-2 20-6 28-14 11-10 23-20 37-28 6-3 6-7 0-10-18-10-34-24-53-31-4-2-9-1-13-4a5 5 0 0 1-2-2q3-15 18-15a58 58 0 0 0 21-4c6-2 13-4 18-8l6-3c-22 1-46-18-48-39-3-21 0-42 10-61 19-20 18-62-16-83-14-12-31-20-47-28a59 59 0 0 1-24-47 288 288 0 0 1 15-109l2-8c5-14 14-23 30-20a15 15 0 0 0 5 0c17 0 33 7 49 13 34 15 68 31 105 39 6 1 9 6 14 8 9 2 17 2 25 2 26 0 34 6 41 31 10 40 8 80-1 119Z" style="fill:#ceaa7d"/>
    <path d="M693 408a6 6 0 0 1-2 0l-1-1a24 24 0 0 1 0-5l4-27a249 249 0 0 0 2-51c-1-13-2-25-5-37a113 113 0 0 0-4-14 34 34 0 0 0-13-16 10 10 0 0 0-5-2l-13 1c-10 0-19 0-29-2l-4-2a4 4 0 0 1-3-3l-19-7a374 374 0 0 1-59-20l-34-15a244 244 0 0 0-38-13 37 37 0 0 0-10-1c-30-4-52 8-69 32-11 15-20 31-26 48-5 18-15 31-34 35-9 2-14 8-17 16l-20 56-5 11c-3 4-7 8-12 6-6-2-9-5-10-11a13 13 0 0 1 1-7c6-16 0-30-8-43-4-7-9-14-6-22v-6a86 86 0 0 1 5-48l6-15a38 38 0 0 0 3-13 135 135 0 0 1 5-26 93 93 0 0 1 8-21l6-11a128 128 0 0 0 10-22 121 121 0 0 1 4-12 56 56 0 0 1 5-9c4-5 9-9 15-10a149 149 0 0 0 36-17 166 166 0 0 0 22-15l16-12a54 54 0 0 1 18-9c4-1 8-2 13-1 7 1 14 0 21-1l13-3 26-4a22 22 0 0 1 4 0c15 1 29 3 43 10a72 72 0 0 1 24 14 30 30 0 0 0 8 6l25 11 43 19c24 13 46 29 64 50a152 152 0 0 1 34 64 104 104 0 0 1 3 24v8c5 45-5 86-28 125l-10 13Z" style="fill:#614d42"/>
    <path d="M254 314a16 16 0 0 1 2 3c2 8 6 16 10 24l6 12a27 27 0 0 1 1 20l-2 5a18 18 0 0 0-1 8 9 9 0 0 0 4 7c4 3 7 3 11-1a17 17 0 0 0 2-4 13 13 0 0 0 2-3c2-14 8-25 13-38l9-25a49 49 0 0 1 5-9 16 16 0 0 1 7-6l7-3 9-2a30 30 0 0 0 15-12 63 63 0 0 0 7-14l4-13a64 64 0 0 1 6-13 262 262 0 0 1 17-28 133 133 0 0 1 17-18 42 42 0 0 1 30-12h22l3 1h-15c-5 0-8 2-10 6l-9 19c-4 11-6 22-9 34l-3 19a18 18 0 0 0 0 4c-1 5 0 9-2 14v37a69 69 0 0 0 5 23l5 10a4 4 0 0 1 1 1 34 34 0 0 0 12 12c-3 4-7 2-11 2l-20-4c-9-2-17-1-25 6-8 6-16 13-21 22-4 7-6 14-3 21l-2 2c-8 2-12 8-17 13a5 5 0 0 0-1 2l-6 14a20 20 0 0 0-1 7v18l3 15a108 108 0 0 0 9 27l6 15a11 11 0 0 1 1 4v15l-8 37-4 18-5 23a39 39 0 0 0 0 6v7c-2 4-2 9-2 14v10a23 23 0 0 0 1 6 52 52 0 0 1 1 8 174 174 0 0 0 4 24 74 74 0 0 0 4 9l7 17a53 53 0 0 0 6 10c5 6 9 13 15 18a37 37 0 0 1 3 4c7 8 16 13 26 18 8 5 18 8 27 11a78 78 0 0 0 13 2 70 70 0 0 1 10 2 23 23 0 0 0 5 0h14c0 6-4 7-8 9-14 8-29 10-45 9l-10-1h-4l-9-2c-17-3-30-10-42-22-38-38-63-84-78-135-7-25-11-50-15-75v-48a39 39 0 0 0 1-11v-33a2 2 0 0 0-3-3 12 12 0 0 0-2 1c-6 2-12 2-19 2-4-1-10-5-13-9a50 50 0 0 1-5-17c-3-16-2-32-2-47 0-6 2-11 3-17l5-15a39 39 0 0 0 1-13v-19c0-10 4-19 9-28a20 20 0 0 1 6-6c3-2 7-4 11-2a27 27 0 0 0 9 1Z" style="fill:#c29f77"/>
    <path d="m629 1187-2 8-20 64-7 21a14 14 0 0 0 0 4l1 1a1 1 0 0 0 1 0 34 34 0 0 0 3-4 328 328 0 0 0 14-32l16-43a10 10 0 0 1 1-2l2-1a6 6 0 0 1 0 1 3 3 0 0 1 0 1l-3 24-2 18a363 363 0 0 1-11 51 12 12 0 0 1-1 2l-4 6-6 12a14 14 0 0 1-8 7 4 4 0 0 1-4-2 34 34 0 0 1-5-10l-4-17v-11l-1-14-1-7v-32c-2-5-2-9-2-14v-33a39 39 0 0 0-1-10 30 30 0 0 1-1-8v-25a37 37 0 0 0-1-10 34 34 0 0 1-1-8v-13l-1-13a25 25 0 0 1-1-7v-10a43 43 0 0 0-1-12l-1-9-1-13v-9l-2-9v-10c0-4 0-8-2-12a20 20 0 0 1 0-6 34 34 0 0 0-2-10 22 22 0 0 1 0-6 35 35 0 0 0-1-9 22 22 0 0 1-1-6 26 26 0 0 0-1-8 10 10 0 0 1-1-2c0-11-4-21-4-31l-2-8-6-33h-1l-1 7c-5-1-5-5-6-9a737 737 0 0 0-32-119c-2-4-3-7-1-11 4-5 9-8 14-11l10-6a9 9 0 0 0 2 2l16 7a334 334 0 0 1 42 23 438 438 0 0 1 39 30c12 10 24 20 35 32l10 10a4 4 0 0 0 2 1l1-2 1-8a17 17 0 0 1 1-3 51 51 0 0 1-1 17 49 49 0 0 0-1 8l-1 23-1 9-1 17a33 33 0 0 0-1 6l-1 15-1 8-1 10v3l-3 25-3 23v7a93 93 0 0 1-3 19 977 977 0 0 1-44 138l-18 44-3 9 1 1h1a21 21 0 0 0 6-7l13-23 2-2a6 6 0 0 1 0-2l2-2c3 0 3 2 2 4a8 8 0 0 1 0 2Z" style="fill:#858c8e"/>
    <path d="M253 538a6 6 0 0 1 1 5v15a35 35 0 0 0 1 10 49 49 0 0 1 1 6l1 7a29 29 0 0 1 1 4l3 21 5 24 6 22a282 282 0 0 0 10 31l18 39a16 16 0 0 0 1 2l18 27 13 18a44 44 0 0 0 4 4l14 14a61 61 0 0 0 17 12c5 3 10 6 16 7l5 1c3 2 6 0 8 2h4c2 2 6 0 8 3-1 4-4 5-7 6-10 3-19 9-27 15-9 7-20 9-32 8-27-2-55-1-82-1a11 11 0 0 0-11 7c-1 3-2 6-5 8-5 0-7-4-8-7-16-41-34-82-47-124-1-7-4-14-4-21 1-13 6-23 16-31 20-16 29-38 35-62 0-4 3-7 6-10l4-13 5-34a19 19 0 0 1 0-4Z" style="fill:#a98969"/>
    <path d="M242 600a27 27 0 0 0 0 3l-5 7c-1 3-4 4-6 5-30 11-42 35-42 65 0 8-3 15-1 22 0 6 2 11 3 17l1 4c-9 3-18 4-26 11a62 62 0 0 0-19 40c-1 7 1 15-6 20-4-2-5-6-5-10 0-26-1-52 3-78s17-48 36-67l10-7 8-7a5 5 0 0 0 2-1c6-7 15-11 23-16 3-3 8-4 12-6a30 30 0 0 1 12-2Z" style="fill:#c4c2bd"/>
    <path d="m175 639 1 3a18 18 0 0 1-3 4c-7 7-12 16-18 24a64 64 0 0 0-6 13 124 124 0 0 0-7 34 14 14 0 0 1 0 2c-2 10-2 19-2 29v38c0 3 0 5 2 8q9 15 0 30v24a3 3 0 0 1-1 1h-1l-3-22-3-18a16 16 0 0 0-1-5 26 26 0 0 1-1-8 38 38 0 0 0-1-9 42 42 0 0 1-1-9l-1-11a24 24 0 0 1-1-6v-53a28 28 0 0 1 1-9 14 14 0 0 0 1-4 35 35 0 0 1 3-14c2-7 4-14 8-20a28 28 0 0 1 5-7c4-4 8-9 14-11l1-1Z" style="fill:#767b7e"/>
    <path d="m540 741-2-2Z" style="fill:#ceaa7d"/>
    <path d="m-33 780 2 2v1a10 10 0 0 1 0 3l-1 1a19 19 0 0 1-1 2c-7 11-7 12 2 20l47 38c5 4 12 8 10 15-2 8-10 7-16 9a12 12 0 0 1-7 1c-1-1-3-2-3-4a26 26 0 0 0 3-3 2 2 0 0 0 0-2 31 31 0 0 0-4-4l-19-13a163 163 0 0 1-28-24l-7-10a16 16 0 0 1-2-3c-2-3-1-6 2-9a160 160 0 0 1 16-16l2-2a24 24 0 0 1 2-2Z" style="fill:#767b7e"/>
    <path d="M-19 877a26 26 0 0 0 5 0l16-6a10 10 0 0 0 2-1l17-5a13 13 0 0 0 2-2 3 3 0 0 0 1-3 86 86 0 0 0-14-14 21 21 0 0 1-3-2c-4-5-10-8-14-12a56 56 0 0 0-8-6c-7-4-12-10-18-15-4-2-6-6-9-9a3 3 0 0 1-1-3 28 28 0 0 1 5-9l3-4 2-2 2-2 12-9a74 74 0 0 1 14-9c7-3 14-8 22-10l15-4 9-1c9-1 17 2 26 5a76 76 0 0 1 19 12 6 6 0 0 1 2 1l14 19a17 17 0 0 1 2 3l8 16 4 8a278 278 0 0 1 15 44c3 7 4 16 6 24a55 55 0 0 1 3 12l2 11h1a1 1 0 0 0 1-1v-7c5 2 5 5 5 9a136 136 0 0 1 1 25c-1 15 1 30 1 46a37 37 0 0 1 0 8c-1 8 0 15 2 23l7 90 8 101 9 95 9 94 7 83c1 27 4 54 3 81 0 5 1 10-4 14a6 6 0 0 1-2-4v-12a3 3 0 0 0 0-1l-1 1-3 9a5 5 0 0 1-4 3q-6 2-9-3l-10-12a61 61 0 0 1-6-11l-4-8-17-38-13-33-9-26a436 436 0 0 0-16-44l-9-22-3-8-6-19a35 35 0 0 0-2-3l-13-30-6-12c-2-4-5-7-9-10l-3-1-6-18-22-61-14-42-15-49-14-44-11-40-11-36-12-48-7-30a13 13 0 0 1 0-8 12 12 0 0 1 4-6l9-6 4-2a7 7 0 0 0 2 0 248 248 0 0 1 23-11Z" style="fill:#8f9499"/>
    <path d="M146 905c-1-3 0-6-2-9v-38l-1-27-1-7v-30l1-15a13 13 0 0 0 1-4c0-11 4-22 10-33a20 20 0 0 1 3-3l6-7c5-6 12-8 20-10a11 11 0 0 1 9 1l5 13a537 537 0 0 0 21 56l23 59a34 34 0 0 0 2 3c4 3 5 8 7 12 8 18 14 36 27 51 7 9 17 9 27 12 8 3 17 5 25 9 6 2 11 6 10 12-1 7-7 9-13 10a26 26 0 0 1-11 0c-21-5-41-11-57-26-6-5-12-8-20-8-28-2-56-9-83-15a15 15 0 0 1-9-6Zm353 78a27 27 0 0 0-4 0c-10 5-21 4-32 2a176 176 0 0 1-20-4 30 30 0 0 0-5 0 49 49 0 0 1-6-1 32 32 0 0 0-8-1 12 12 0 0 1-4-1c-5-2-11-1-16-1l-6-1c-5-2-10-1-15-1h-22a7 7 0 0 1-6-2c-1-5 2-7 4-9 19-17 37-33 58-46a86 86 0 0 1 19-9c13-4 19 0 19 14 3-15 14-38 25-52l13-16c14-16 18-34 15-55a260 260 0 0 0-4-26c-1-4-2-8 1-12a15 15 0 0 1 9-6 499 499 0 0 1 30 97l8 38a24 24 0 0 0 1 4v4a63 63 0 0 1 0 23l-4 4-5 2a16 16 0 0 0-8 8l-3 5a25 25 0 0 1-1 3v1c-3 13-9 23-18 31-4 5-9 7-15 7Z" style="fill:#e3dfdb"/>
    <path d="M505 762a37 37 0 0 0 0 4l5 21 2 18a69 69 0 0 1-2 25 57 57 0 0 1-10 22l-10 12a121 121 0 0 0-11 14l-10 16a52 52 0 0 0-3 7l-11 30a18 18 0 0 1-1 3 1 1 0 0 1-2 0l-1-1a23 23 0 0 1 0-6 28 28 0 0 0 1-8 13 13 0 0 0-1-5 5 5 0 0 0-5-3 17 17 0 0 0-7 0 117 117 0 0 0-24 13l-27 19c-6 6-13 10-19 17a48 48 0 0 1-6 5 28 28 0 0 0-8 8c-6 4-11 9-14 16a50 50 0 0 0-3 15c5 4 4 9 4 14v94c1 45 2 89 11 133a100 100 0 0 0 4 14c14 41 9 81-8 120l-6 11c-14 26-19 53-19 82a34 34 0 0 1-1 9c-2 16-14 28-15 45-1 10-4 19-4 29 0 3-1 6-4 6s-4-3-4-5c-3-24-7-49 4-73a69 69 0 0 0 6-40c-2-12 1-24 7-34 4-6 6-13 4-20a54 54 0 0 1 6-35c14-21 15-44 10-68-8-34-9-68-5-102v-15c1-16 0-32 2-48 2-25 0-51-3-76-2-17-10-29-23-38-39-29-83-40-132-38-9 0-15 7-24 8v-10a25 25 0 0 0-1-6l-1-16v-40l21 5 8 2 30 6a91 91 0 0 0 17 2l12 2h10a31 31 0 0 1 13 6 28 28 0 0 1 3 3c9 9 9 9 21 14a172 172 0 0 0 25 10c5 1 10 3 16 2a33 33 0 0 0 11-3 11 11 0 0 0 3-2 4 4 0 0 0 1-5 19 19 0 0 0-10-7l-19-6-20-6-13-8a6 6 0 0 1-1-2c3-3 6-2 9-1 27 7 56 12 81 27 5 3 9 0 12-4a280 280 0 0 1 38-32c12-9 25-17 40-21 7-2 11-6 13-13 2-8 4-16 8-24a16 16 0 0 1 2-2l1-1c8-10 8-22 9-33a67 67 0 0 0 0-22c-1-5-1-9 2-14l1-3 12-11a20 20 0 0 1 3-2Z" style="fill:#c4c2bd"/>
    <path d="M478 852a98 98 0 0 0-6 18 63 63 0 0 1-6 14 8 8 0 0 1-6 5c-14 3-27 10-39 18-8 5-16 10-22 17-10 7-18 16-26 25l-2 1a3 3 0 0 1-3 0l-6-3a86 86 0 0 0-20-10l-31-10-14-3-17-5-6-1a74 74 0 0 1-11-17 337 337 0 0 1-14-31 44 44 0 0 1-6-16 15 15 0 0 0 1-3l1-6c2-5 5-7 10-8a25 25 0 0 1 5-1h76a24 24 0 0 1 8 1c4 2 8 1 12 0 5-1 11-3 15-6l10-8a30 30 0 0 1 5-3 104 104 0 0 1 19-7 4 4 0 0 0 0-1l-1-1-4-2h24c9 0 17-2 25-5a142 142 0 0 0 13-7 12 12 0 0 0 2-2l13-7c7 6 4 16 5 23 2 13 4 27-3 39h1a11 11 0 0 0-2 2Z" style="fill:#b89472"/>
    <path d="M485 618a41 41 0 0 1 19 9l17 11 16 9a32 32 0 0 1 6 5c3 3 3 8 0 10a21 21 0 0 1-3 3c-8 5-17 9-23 16l-13 11c-9 9-21 14-33 16a184 184 0 0 1-19 0c-18-2-33-8-48-18a52 52 0 0 1-6-4l-6-7a81 81 0 0 1-17-24 136 136 0 0 1-10-34l-4-19a4 4 0 0 1-1-1c-1-19 3-22 20-17 21 6 43 9 63 15 11 3 21 8 29 17 4 3 9 0 13 2Z" style="fill:#ac8166"/>
    <path d="M472 616a23 23 0 0 1-12-6c-5-3-9-6-15-7l-28-6a297 297 0 0 1-47-12 15 15 0 0 0-3 0 5 5 0 0 0-6 5v12a6 6 0 0 1-2-4v-16c0-7 2-12 7-17a42 42 0 0 1 10-7l25-12a253 253 0 0 0 24-14l12-8 10-5v1a6 6 0 0 1 1 3c-7 14-4 27 7 38l22 25q8 9 21 9c4 0 9-1 13 4l-2 1c-6 1-12 3-18 2a24 24 0 0 0-14 5 9 9 0 0 0-3 3 13 13 0 0 0-2 6Z" style="fill:#c29f77"/>
    <path d="M355 419a15 15 0 0 1-2 0 5 5 0 0 1-3-4v-9c4-8 8-16 14-22l13-10c8 9 19 12 30 13a177 177 0 0 1 33 7c15 5 27 15 37 27 3 4 5 7 9 9 2 2 4 3 7 1 2-2 1-5 0-7-2-5-6-10-9-14-3-3-6-6-4-10l4 2 16 15c3 3 4 7 6 10l4 12a13 13 0 0 1 0 3 71 71 0 0 1-4 34 21 21 0 0 1-9 10c-8 3-16 0-20-9-2-3-2-7-3-11a47 47 0 0 0-10-18 28 28 0 0 1-2-4c-6-26-29-41-54-36-13 2-24 7-37 9h-7Z" style="fill:#a98969"/>
    <path d="m474 466 4 7 2 4c4 6 9 10 17 9a19 19 0 0 1-1 3c-5 10-6 21-8 31a22 22 0 0 0-1 5v14a32 32 0 0 0 3 14 24 24 0 0 0 5 9c8 9 17 17 29 20a10 10 0 0 0 9-1 12 12 0 0 1 3-1 7 7 0 0 1 3 0 2 2 0 0 1 1 2 17 17 0 0 1-12 9 4 4 0 0 0-5 1c-12 4-23 1-30-11a78 78 0 0 0-31-29 34 34 0 0 1-7-5c-7-6-8-12-4-20 2-3 5-6 0-8a2 2 0 0 1-1-1v-1a10 10 0 0 1 4-4 22 22 0 0 0 9-9l5-9c3-8 6-21 6-29Z" style="fill:#c29f77"/>
    <path d="M480 400a16 16 0 0 0 2 3l11 13a67 67 0 0 1 5 10 7 7 0 0 1-1 8 8 8 0 0 1-9 2 13 13 0 0 1-6-3l-6-7a133 133 0 0 0-16-17 49 49 0 0 0-16-10 149 149 0 0 0-28-7l-22-4-8-2a28 28 0 0 1-4-2c-4-2-6-5-5-10 6-8 15-10 25-8l30 6a13 13 0 0 0 3 0l8 4c11 4 22 10 31 19Zm64 56c-1-3 0-6 3-8a23 23 0 0 1 10-5l11-2c9-2 18-2 27-2 15 1 30 3 45 8a56 56 0 0 1 12 5c7 4 10 10 10 18v5c-5 8-10 10-20 5l-33-14c-17-5-33-8-50-5-6 1-11 1-15-5Z" style="fill:#58453d"/>
    <path d="M544 456a35 35 0 0 0 17 1 68 68 0 0 1 17 0 202 202 0 0 1 20 3 131 131 0 0 1 34 11l11 6a32 32 0 0 0 7 3c4 0 8 0 10-3a13 13 0 0 1 2-2l1 6c2 6 0 12-3 16s-7 6-11 6l-13-1-3 2a6 6 0 0 1-2 2 3 3 0 0 1-3 0 6 6 0 0 1-3-5c3-4-2-7-4-9-5-9-12-17-22-22-17-9-32-2-47 6h-7a17 17 0 0 1-4-1 7 7 0 0 1-4-11Z" style="fill:#c19e76"/>
    <path d="m450 519 7-2a9 9 0 0 1 3 0 2 2 0 0 1 1 3 15 15 0 0 1-2 2l-4 5a35 35 0 0 0-3 5 7 7 0 0 0 0 6 20 20 0 0 0 9 11c6 2 10 5 15 8 8 5 14 11 18 20a34 34 0 0 0 5 8c4 4 9 5 14 6a23 23 0 0 0 11-2l4 2c-4 3-9 6-14 6a14 14 0 0 0-3 2h-16c-6 0-11-2-16-6a35 35 0 0 1-8-8 67 67 0 0 0-11-12l-14-17a21 21 0 0 1-5-17v-1a19 19 0 0 1 5-16 12 12 0 0 0 1-1 5 5 0 0 1 2-2Z" style="fill:#a98868"/>
    <path d="m371 417 8-4a162 162 0 0 1 27-8 79 79 0 0 1 16-1 35 35 0 0 1 14 3 21 21 0 0 1 7 4 58 58 0 0 1 13 17 80 80 0 0 0 12 16 1 1 0 0 1-1 2l-5-2a122 122 0 0 1-14-16 2 2 0 0 0-3 1l-1 2c-4 8-15 11-22 9a28 28 0 0 1-14-10 18 18 0 0 1-4-10l-1-4a2 2 0 0 0-2-2l-13 3Zm181 59c-2-3-2-4 0-4l18-7c9-4 19-3 28 1 8 3 14 9 20 15a62 62 0 0 1 12 22 1 1 0 0 1-1 1l-4-3c-4-6-9-12-14-16a2 2 0 0 0-3 0l-2 2-2 3a18 18 0 0 1-13 8c-9 0-16-4-22-11a17 17 0 0 1-2-5 43 43 0 0 1-1-6 2 2 0 0 0-3-2h-4Z" style="fill:#59463d"/>
    <path d="M479 850a12 12 0 0 1 1-3 23 23 0 0 0 0-13l-1-12c0-4 1-8-1-12a26 26 0 0 1 0-7l-1-15a24 24 0 0 1 12-10c0 6 0 11 2 17 0 9 1 18-1 28l-4 16c-2 4-3 8-7 11Z" style="fill:#8b857e"/>
    <path d="M485 618h-9a6 6 0 0 1-4-2h9a6 6 0 0 1 4 2Zm-35-101v2h-3a5 5 0 0 1 3-2Z" style="fill:#c29f77"/>
    <path d="M239 426a39 39 0 0 1 1-5v-13c-2-5 0-10 2-15a28 28 0 0 1 4-6 12 12 0 0 1 8-5 5 5 0 0 1 6 5c0 3 0 7 2 10a6 6 0 0 1 0 3l-1 3a18 18 0 0 1-7 12 14 14 0 0 0-5 12c0 6-1 11 1 17l-1 1a2 2 0 0 1-2 0 7 7 0 0 1-2-2c-3-4-6-11-6-17Zm27-62c0 4 0 8-2 12h-1a4 4 0 0 1-2 0 3 3 0 0 1 0-2 43 43 0 0 1-1-6c1-6-2-11-5-15a14 14 0 0 0-10-6 8 8 0 0 0-7 2l-6 6h-2a9 9 0 0 1-1-2 2 2 0 0 1 0-1 32 32 0 0 1 12-17 25 25 0 0 1 4-2 6 6 0 0 1 5 0 19 19 0 0 1 10 8 29 29 0 0 1 3 7c2 5 4 10 3 16Z" style="fill:#a98969"/>
    <path d="M396 809h-4a5 5 0 0 1-4-2h4a5 5 0 0 1 4 2Z" style="fill:#b89472"/>
    <path d="M188 702a9 9 0 0 1-1-5l-2-15a8 8 0 0 1 0-4l2-13c0-6 2-11 4-16 8-20 23-33 44-39a11 11 0 0 1 2 0c2 1 3 2 2 3-2 5-2 11-5 16a149 149 0 0 1-18 34 32 32 0 0 1-9 9l-8 7c-7 6-10 14-11 23Z" style="fill:#88837d"/>
    <path d="m505 647 7 2c5 0 8 2 8 6 1 4 1 8-4 9l-15 14a33 33 0 0 1-9 5 61 61 0 0 1-34 5 127 127 0 0 1-30-8 90 90 0 0 1-32-22 15 15 0 0 1-4-7c2-7 7-3 11-2l8 4 3 2a11 11 0 0 1 3 1l10 5a88 88 0 0 0-9-4 15 15 0 0 1-2-1l-2-1-9-5a59 59 0 0 1-23-24c-3-6-4-13 3-18 9-1 25 4 31 10 2 2 3 3 5 2 2 0 5-1 6 1 5 8 16 5 23 10 7 6 15 9 24 10Z" style="fill:#e8dbd9"/>
    <path d="M386 610c-3 1-4 3-4 6a14 14 0 0 0 2 6 51 51 0 0 0 6 11 78 78 0 0 0 11 11l7 5c0 4-2 3-4 3l-8-2a4 4 0 0 0-4 1 7 7 0 0 1-4-2l-8-12a226 226 0 0 1-15-35 34 34 0 0 1-2-6 10 10 0 0 1 1-4c0-1 2-3 3-2a64 64 0 0 1 9 2l9 5 17 10-3 3c-4 0-8-2-13 0Z" style="fill:#59463e"/>
    <path d="M386 610a5 5 0 0 1 4-2l10 1c2 0 6-1 8 2l21 8 38 16a161 161 0 0 0 28 9 17 17 0 0 1 10 3l-8 3a3 3 0 0 1-4-1l-1-1c-3-3-4-3-8-1l-2 2a2 2 0 0 1-2 0 24 24 0 0 0-2-4 9 9 0 0 0-13-2l-4 4a2 2 0 0 1-3 0l-1-5c-2-6-6-9-11-11a8 8 0 0 0-7 1 43 43 0 0 1-4 2 2 2 0 0 1-2-1l-2-5a18 18 0 0 0-3-4c-2-2-6-2-9 0l-2 2-2-1-2-7a5 5 0 0 0-4-4 11 11 0 0 0-8 2c-2 1-2 1-3-2l-1-2a5 5 0 0 0-2-1Z" style="fill:#d8c7c2"/>
    <path d="M516 664a39 39 0 0 0 2-5 7 7 0 0 0-1-7 49 49 0 0 0-5-3l4-1c3-1 16 1 19 3a17 17 0 0 1 4 2c1 2 1 5-1 6a8 8 0 0 1-2 1l-17 6c-1 1-2 0-3-2Z" style="fill:#5c483f"/>
    <path d="M408 611c-3-1-6 0-8-2l2-2c2 0 4 1 6 4Z" style="fill:#7f6358"/>
    <path d="M447 519h3a5 5 0 0 1-3 2Z" style="fill:#c29f77"/>
    <path d="m487 582-1 2a2 2 0 0 1-3 1 18 18 0 0 1-3-2 129 129 0 0 0-11-14 22 22 0 0 1-2-3v-3a3 3 0 0 1 4-1 25 25 0 0 1 13 12c1 2 3 5 3 8Z" style="fill:#5f4a3f"/>
    <path d="m404 652 4-3 7 5a5 5 0 0 1 2 1h1c0 2-1 3-3 2l-1-1a6 6 0 0 1-3-1 11 11 0 0 1-7-3Z" style="fill:#765a53"/>
    <path d="m415 657 3-2a49 49 0 0 1 11 6 1 1 0 0 1 0 1v1c-5-1-9-3-14-6Zm2-2-2-1Zm-6 0 3 1Z" style="fill:#8f7a74"/>
    <path d="M429 663v-2l1 1Z" style="fill:#9c736d"/>
  </g>
</svg>
